<svg id="Capa_1" enable-background="new 0 0 512 512" height="512" viewBox="0 0 512 512" width="512" xmlns="http://www.w3.org/2000/svg"><g><path d="m216.292 57.45h-78.116v-44.687c0-7.048 5.714-12.762 12.762-12.762h52.592c7.048 0 12.762 5.714 12.762 12.762z" fill="#9facba"/><path d="m216.289 12.759v36.897h-20.613v-36.897c0-7.05-5.71-12.759-12.759-12.759h20.613c7.049 0 12.759 5.71 12.759 12.759z" fill="#8d9ca8"/><path d="m245.735 511.999h-137c-11.242 0-20.356-9.114-20.356-20.356v-421.626c0-11.242 9.114-20.356 20.356-20.356h137c11.242 0 20.356 9.114 20.356 20.356v421.626c0 11.242-9.114 20.356-20.356 20.356z" fill="#91deb6"/><path d="m266.089 70.022v421.623c0 11.244-9.111 20.355-20.355 20.355h-20.396c11.244 0 20.355-9.111 20.355-20.355v-421.623c0-11.244-9.111-20.365-20.355-20.365h20.396c11.244-.001 20.355 9.12 20.355 20.365z" fill="#6ed5a1"/><g fill="#54b582"><path d="m206.902 257.363c-4.269 0-7.73 3.461-7.73 7.73v17.043h-13.937v-15.216c0-4.269-3.461-7.73-7.73-7.73s-7.73 3.461-7.73 7.73v15.216h-13.937v-17.043c0-4.269-3.461-7.73-7.73-7.73s-7.73 3.461-7.73 7.73v24.773c0 4.269 3.461 7.73 7.73 7.73h58.793c4.269 0 7.73-3.461 7.73-7.73v-24.773c.001-4.269-3.46-7.73-7.729-7.73z"/><path d="m203.494 175.718c-3.272-2.743-8.146-2.315-10.89.956-2.743 3.271-2.315 8.146.956 10.89.604.506 1.17 1.054 1.679 1.626 2.61 2.93 3.933 6.679 3.933 11.141 0 12.096-9.841 21.938-21.938 21.938s-21.938-9.841-21.938-21.938c0-4.397 1.294-8.637 3.742-12.26 2.39-3.537 1.46-8.342-2.077-10.732-3.537-2.391-8.342-1.46-10.732 2.077-4.182 6.189-6.392 13.421-6.392 20.915 0 20.621 16.777 37.397 37.397 37.397s37.397-16.777 37.397-37.397c0-8.251-2.714-15.659-7.849-21.425-1.007-1.13-2.113-2.203-3.288-3.188z"/><path d="m177.234 154.276c20.621 0 37.397-16.777 37.397-37.397s-16.777-37.397-37.397-37.397-37.397 16.777-37.397 37.397 16.776 37.397 37.397 37.397zm0-59.335c12.096 0 21.938 9.841 21.938 21.938s-9.841 21.938-21.938 21.938-21.938-9.841-21.938-21.938 9.842-21.938 21.938-21.938z"/></g><circle cx="321.25" cy="409.628" fill="#fdf6ec" r="102.37"/><path d="m423.622 409.626c0 56.541-45.833 102.373-102.373 102.373-13.491 0-26.364-2.608-38.154-7.359 5.741 1 11.636 1.525 17.665 1.525 56.541 0 102.373-45.832 102.373-102.363 0-43.05-26.58-79.895-64.219-95.014 48.12 8.369 84.708 50.337 84.708 100.838z" fill="#fef1da"/><path d="m319.903 341.16-35.548 73.673c-1.242 2.573.633 5.559 3.49 5.559h24.995c2.349 0 4.158 2.074 3.839 4.401l-7.002 51.088c-.572 4.174 4.989 6.134 7.16 2.524l41.141-68.399c1.422-2.364-.012-5.415-2.739-5.829l-24.677-3.747c-1.894-.288-3.294-1.916-3.294-3.831v-53.755c0-4.119-5.575-5.394-7.365-1.684z" fill="#fe9738"/><g fill="#fe860a"><path d="m311.355 394.013v-35.145l8.544-17.706c1.793-3.71 7.369-2.432 7.369 1.68v53.758c0 1.525.886 2.865 2.206 3.494l-14.831-2.247c-1.887-.289-3.288-1.917-3.288-3.834z"/><path d="m357.981 410.008-41.143 68.393c-2.175 3.618-7.73 1.649-7.163-2.525l2.597-18.922 29.796-49.533c1.216-2.02.35-4.535-1.618-5.493l14.79 2.247c2.73.412 4.163 3.463 2.741 5.833z"/></g></g></svg>