<svg id="Capa_1" enable-background="new 0 0 512 512" height="512" viewBox="0 0 512 512" width="512" xmlns="http://www.w3.org/2000/svg"><g><g><path d="m106.461 409.702h299.073v36.251h-299.073z" fill="#9e5528"/><path d="m405.533 409.698v36.25h-33.881l-11.746-36.25z" fill="#904d24"/><path d="m71.869 510.949c-11.272-3.654-17.448-15.753-13.795-27.025l55.953-172.633c3.653-11.272 15.753-17.448 27.025-13.795 11.272 3.654 17.448 15.753 13.795 27.025l-55.952 172.633c-3.654 11.272-15.754 17.448-27.026 13.795z" fill="#c86d36"/><path d="m155.902 317.908c0 2.195-.34 4.421-1.051 6.615l-55.952 172.627c-3.658 11.273-15.755 17.455-27.028 13.798-3.648-1.185-6.76-3.246-9.181-5.884 7.337-1.494 13.674-6.791 16.136-14.416l55.952-172.627c.711-2.205 1.051-4.431 1.051-6.626 0-5.41-2.061-10.593-5.667-14.519 3.504-.721 7.244-.567 10.892.618 9.078 2.948 14.848 11.366 14.848 20.414z" fill="#ac5e2e"/><path d="m440.126 510.949c11.272-3.654 17.448-15.753 13.795-27.025l-55.953-172.634c-3.653-11.272-15.753-17.448-27.025-13.795-11.272 3.654-17.448 15.753-13.795 27.025l55.952 172.634c3.654 11.272 15.754 17.448 27.026 13.795z" fill="#c86d36"/><path d="m440.124 510.947c-6.224 2.02-12.685 1.04-17.857-2.143 8.233-5.07 12.262-15.281 9.15-24.885l-55.952-172.627c-1.638-5.049-4.966-9.078-9.16-11.654 1.422-.876 2.978-1.608 4.637-2.143 11.273-3.658 23.37 2.525 27.028 13.798l55.952 172.627c3.657 11.272-2.525 23.38-13.798 27.027z" fill="#ac5e2e"/></g><path d="m492.231 350.673h-472.465c-10.852 0-19.65-8.798-19.65-19.65v-311.369c0-10.852 8.798-19.65 19.65-19.65h472.465c10.853 0 19.65 8.798 19.65 19.65v311.369c0 10.852-8.798 19.65-19.65 19.65z" fill="#d77f4a"/><path d="m511.884 19.65v311.373c0 10.85-8.8 19.65-19.65 19.65h-20.608c10.85 0 19.65-8.8 19.65-19.65v-311.373c0-10.85-8.8-19.65-19.65-19.65h20.608c10.85 0 19.65 8.8 19.65 19.65z" fill="#c86d36"/><path d="m473.305 317.966h-434.613c-3.895 0-7.053-3.158-7.053-7.053v-271.15c0-3.895 3.158-7.053 7.053-7.053h434.613c3.895 0 7.053 3.158 7.053 7.053v271.15c0 3.896-3.158 7.053-7.053 7.053z" fill="#91deb6"/><path d="m480.363 39.764v271.146c0 3.895-3.163 7.059-7.058 7.059h-20.608c3.895 0 7.058-3.163 7.058-7.059v-271.146c0-3.895-3.163-7.059-7.058-7.059h20.608c3.895.001 7.058 3.164 7.058 7.059z" fill="#6ed5a1"/><g fill="#54b582"><path d="m117.145 132.464c4.142 0 7.5-3.358 7.5-7.5s-3.358-7.5-7.5-7.5h-42.052c-4.142 0-7.5 3.358-7.5 7.5v99.8c0 4.142 3.358 7.5 7.5 7.5h42.051c4.142 0 7.5-3.358 7.5-7.5s-3.358-7.5-7.5-7.5h-34.551v-34.9h31.451c4.142 0 7.5-3.358 7.5-7.5s-3.358-7.5-7.5-7.5h-31.451v-34.9z"/><path d="m389.104 211.124c-3.174-2.661-7.903-2.247-10.565.927-.556.663-1.156 1.282-1.784 1.841-3.219 2.866-7.323 4.32-12.201 4.32-13.135 0-23.82-10.686-23.82-23.82s10.686-23.82 23.82-23.82c4.774 0 9.378 1.405 13.312 4.063 3.435 2.319 8.096 1.417 10.414-2.016s1.416-8.094-2.016-10.413c-6.424-4.34-13.931-6.634-21.71-6.634-21.405 0-38.82 17.415-38.82 38.82s17.415 38.82 38.82 38.82c8.546 0 16.215-2.808 22.178-8.119 1.169-1.041 2.279-2.186 3.3-3.403 2.661-3.174 2.246-7.904-.928-10.566z"/><path d="m281.909 156.042c-8.609 0-15.719 3.069-20.731 8.513-4.431-5.872-10.993-8.837-19.664-8.837-5.764 0-10.957 1.618-15.346 4.539-.864-3.189-3.77-5.538-7.232-5.538-4.142 0-7.5 3.358-7.5 7.5v63.022c0 4.142 3.358 7.5 7.5 7.5s7.5-3.358 7.5-7.5v-32.483c0-.036.005-.071.005-.106 0-13.324 5.917-21.933 15.073-21.933 4.354 0 10.933 0 11.49 18.899.017.578.019 4.397.019 4.441v31.183c0 4.142 3.358 7.5 7.5 7.5 4.143 0 7.5-3.358 7.5-7.5l.017-36.835c.004-14.351 7.544-17.363 13.869-17.363 6.055 0 7.926 1.957 8.54 2.6 2.806 2.934 4.003 9.401 3.562 19.222-.005.112-.008.225-.008.337v32.039c0 4.142 3.357 7.5 7.5 7.5s7.5-3.358 7.5-7.5v-31.873c.624-14.372-1.827-23.937-7.711-30.091-4.59-4.801-11.11-7.236-19.383-7.236z"/><path d="m181.945 172.476h-29.957c-4.142 0-7.5 3.358-7.5 7.5s3.358 7.5 7.5 7.5h29.957c4.142 0 7.5-3.358 7.5-7.5s-3.358-7.5-7.5-7.5z"/><path d="m181.945 199.985h-29.957c-4.142 0-7.5 3.358-7.5 7.5s3.358 7.5 7.5 7.5h29.957c4.142 0 7.5-3.358 7.5-7.5s-3.358-7.5-7.5-7.5z"/><path d="m436.906 166.611c-.032 0-.064 0-.096 0-3.413.043-6.984.076-10.291.094 2.397-3.262 5.398-7.424 9.106-12.722 3.343-4.776 6.73-10.68 6.73-16.658 0-10.952-8.91-19.862-19.862-19.862-9.471 0-17.667 6.738-19.489 16.021-.798 4.064 1.85 8.006 5.915 8.804 4.063.8 8.006-1.851 8.804-5.915.445-2.266 2.451-3.911 4.771-3.911 2.557 0 4.659 1.984 4.849 4.492.204 2.693-2.562 6.363-4.006 8.427-7.631 10.902-12.181 16.86-14.625 20.06-3.143 4.114-5.039 6.597-3.799 10.628.732 2.381 2.602 4.279 4.998 5.078 1.003.334 1.759.587 11.311.587 3.734 0 8.814-.039 15.777-.126 4.142-.052 7.457-3.452 7.404-7.594-.05-4.107-3.398-7.403-7.497-7.403z"/></g></g></svg>